<svg xmlns="http://www.w3.org/2000/svg" version="1.1" xmlns:xlink="http://www.w3.org/1999/xlink" xmlns:svgjs="http://svgjs.dev/svgjs" width="1000" height="1000"><g clip-path="url(#SvgjsClipPath1103)"><rect width="1000" height="1000" fill="#ffffff"></rect><g transform="matrix(2.6907375020893576,0,0,2.6907375020893576,26.896612070885226,0)"><svg xmlns="http://www.w3.org/2000/svg" version="1.1" xmlns:xlink="http://www.w3.org/1999/xlink" xmlns:svgjs="http://svgjs.dev/svgjs" width="351.65332" height="371.64532"><svg version="1.1" id="svg1" width="351.65332" height="371.64532" viewBox="0 0 351.65332 371.64532" xmlns="http://www.w3.org/2000/svg" xmlns:svg="http://www.w3.org/2000/svg">
  <defs id="defs1">
    <clipPath clipPathUnits="userSpaceOnUse" id="clipPath2">
      <path d="M 0,278.734 H 263.74 V 0 H 0 Z" transform="translate(-94.9189,-123.8174)" id="path2"></path>
    </clipPath>
    <clipPath clipPathUnits="userSpaceOnUse" id="clipPath4">
      <path d="M 0,278.734 H 263.74 V 0 H 0 Z" transform="translate(-116.4678,-165.0347)" id="path4"></path>
    </clipPath>
    <clipPath clipPathUnits="userSpaceOnUse" id="clipPath6">
      <path d="M 0,278.734 H 263.74 V 0 H 0 Z" transform="translate(-126.3154,-72.201199)" id="path6"></path>
    </clipPath>
    <clipPath clipPathUnits="userSpaceOnUse" id="clipPath8">
      <path d="M 0,278.734 H 263.74 V 0 H 0 Z" transform="translate(-69.803702,-57.513701)" id="path8"></path>
    </clipPath>
    <clipPath clipPathUnits="userSpaceOnUse" id="clipPath10">
      <path d="M 0,278.734 H 263.74 V 0 H 0 Z" transform="translate(-84.236305,-44.533204)" id="path10"></path>
    </clipPath>
    <clipPath clipPathUnits="userSpaceOnUse" id="clipPath12">
      <path d="M 0,278.734 H 263.74 V 0 H 0 Z" transform="translate(-101.35161,-39.361301)" id="path12"></path>
    </clipPath>
    <clipPath clipPathUnits="userSpaceOnUse" id="clipPath14">
      <path d="M 0,278.734 H 263.74 V 0 H 0 Z" transform="translate(-115.6738,-45.654304)" id="path14"></path>
    </clipPath>
    <clipPath clipPathUnits="userSpaceOnUse" id="clipPath16">
      <path d="M 0,278.734 H 263.74 V 0 H 0 Z" id="path16"></path>
    </clipPath>
    <clipPath clipPathUnits="userSpaceOnUse" id="clipPath18">
      <path d="M 0,278.734 H 263.74 V 0 H 0 Z" transform="translate(-134.0869,-48.582004)" id="path18"></path>
    </clipPath>
    <clipPath clipPathUnits="userSpaceOnUse" id="clipPath20">
      <path d="M 0,278.734 H 263.74 V 0 H 0 Z" transform="translate(-150.67581,-45.654304)" id="path20"></path>
    </clipPath>
    <clipPath clipPathUnits="userSpaceOnUse" id="clipPath22">
      <path d="M 0,278.734 H 263.74 V 0 H 0 Z" transform="translate(-157.6699,-49.703104)" id="path22"></path>
    </clipPath>
    <clipPath clipPathUnits="userSpaceOnUse" id="clipPath24">
      <path d="M 0,278.734 H 263.74 V 0 H 0 Z" transform="translate(-176.3262,-40.330099)" id="path24"></path>
    </clipPath>
    <clipPath clipPathUnits="userSpaceOnUse" id="clipPath26">
      <path d="M 0,278.734 H 263.74 V 0 H 0 Z" id="path26"></path>
    </clipPath>
    <clipPath clipPathUnits="userSpaceOnUse" id="clipPath28">
      <path d="M 0,278.734 H 263.74 V 0 H 0 Z" transform="translate(-195.2461,-39.361301)" id="path28"></path>
    </clipPath>
  <clipPath id="SvgjsClipPath1103"><rect width="1000" height="1000" x="0" y="0" rx="350" ry="350"></rect></clipPath></defs>
  <g id="layer-MC0">
    <path id="path1" d="m 0,0 c 1.836,0.82 1.279,1.959 -0.344,2.686 -6.109,2.743 -12.574,3.994 -19.197,4.429 -1.467,0.091 -3.457,0.292 -4.467,-0.846 -0.306,-0.343 -0.175,-0.976 -0.116,-1.377 3.347,-0.935 6.687,-1.873 10.234,-2.866 -3.383,-6.142 -9.234,-10.222 -10.977,-16.952 C -16.912,-9.255 -8.868,-3.962 0,0" style="fill:#10508c;fill-opacity:1;fill-rule:nonzero;stroke:none" transform="matrix(1.3333333,0,0,-1.3333333,126.55853,206.55547)" clip-path="url(#clipPath2)"></path>
    <path id="path3" d="m 0,0 c -0.247,-0.187 -0.669,-0.054 -0.818,0.271 -0.647,1.426 -0.235,4.043 0.8,4.928 C 0.314,5.479 0.923,5.267 1.11,4.801 1.704,3.336 1.059,0.826 0,0 m 80.573,-35.363 c -8.369,2.114 -16.495,5.149 -24.265,9.336 2.192,5.945 4.158,11.753 6.474,17.418 1.789,4.369 0.986,8.285 -0.837,12.382 -1.974,4.436 -5.936,6.884 -9.316,9.865 -10.197,9.007 -20.42,18.042 -32.647,24.296 -3.432,1.756 -5.077,4.259 -5.863,7.884 -1.578,7.241 -3.651,14.309 -6.365,21.141 0.715,0.02 1.433,0.031 2.152,0.031 44.115,0 80.007,-35.891 80.007,-80.008 0,-1.247 -0.041,-2.483 -0.101,-3.716 0.23,-0.026 0.459,-0.062 0.687,-0.101 0.064,1.267 0.105,2.537 0.105,3.817 0,44.497 -36.202,80.698 -80.698,80.698 -0.81,0 -1.615,-0.015 -2.419,-0.04 -1.716,4.244 -3.684,8.395 -5.941,12.436 -1.288,2.305 -3.05,4.35 -4.587,6.516 -0.518,0.48 -1.1,0.435 -1.035,-0.474 0.324,-1.28 0.574,-2.58 0.977,-3.832 1.616,-4.997 2.982,-10.027 4.002,-15.111 -40.275,-4.491 -71.696,-38.739 -71.696,-80.193 0,-0.894 0.022,-1.784 0.052,-2.67 0.236,-0.029 0.454,0.03 0.687,-0.013 -0.03,0.924 -0.046,1.752 -0.046,2.683 0,41.119 31.179,75.087 71.138,79.514 C 2.516,58.883 3.203,51.15 2.756,43.235 2.556,39.718 1.438,36.838 -0.819,34.119 -6.114,27.741 -11.266,21.235 -16.308,14.659 -18.882,11.305 -21.1,7.681 -23.635,3.945 c -2.49,4.942 -4.61,9.697 -7.218,14.166 -2.383,4.081 -5.154,7.961 -8.081,11.681 -0.739,0.943 -3.033,1.618 -4.021,1.15 -0.062,-0.031 -0.126,-0.067 -0.188,-0.112 -0.929,-0.655 -1.626,-2.743 -1.702,-3.749 -0.163,-0.449 0.098,-1.104 0.291,-1.623 1.749,-4.801 3.44,-9.628 5.335,-14.375 0.94,-2.349 0.697,-3.847 -1.546,-5.41 -2.325,-1.618 -4.509,-3.615 -6.249,-5.891 -1.233,-1.62 -1.233,-2.67 -1.129,-2.459 2.791,0.958 5.32,2.061 7.801,2.564 3.335,0.674 6.517,0.028 8.944,-2.655 2.343,-2.583 2.418,-5.39 0.917,-8.484 -0.844,-1.744 -1.334,-3.68 -1.88,-5.56 -0.596,-2.055 -1.844,-3.369 -3.878,-4.025 -14.402,-4.641 -29.017,-8.267 -44.172,-9.356 -1.279,-0.092 -2.629,0.133 -3.819,-0.695 -0.38,-0.266 -0.307,-0.578 0.027,-0.733 1.018,-0.474 1.307,-0.5 1.982,-0.569 18.975,-1.934 37.597,-0.427 55.705,5.873 0.818,0.284 1.78,0.848 2.18,1.563 4.485,8.061 10.875,14.359 18.192,19.799 1.312,0.977 2.72,1.816 4.172,2.781 0.354,-0.59 0.575,-1.276 0.996,-1.824 0.807,-1.045 1.928,-0.135 2.763,0.33 1.202,0.668 2.479,1.237 3.726,1.818 2.464,1.148 5.098,1.998 7.796,2.357 1.611,0.215 3.245,0.214 4.86,0.013 9.693,-1.211 19.444,-1.944 29.178,-2.866 2.771,-0.265 5.601,-0.236 8.319,-0.775 3.349,-0.659 5.294,-3.434 4.321,-6.629 -1.863,-6.118 -4.157,-12.106 -6.362,-18.119 -0.693,-1.878 -1.685,-3.645 -2.502,-5.389 9.023,-6.953 50.976,-12.229 54.786,-7.12 -8.435,1.633 -16.995,2.902 -25.336,5.015" style="fill:#10508c;fill-opacity:1;fill-rule:nonzero;stroke:none" transform="matrix(1.3333333,0,0,-1.3333333,155.2904,151.59907)" clip-path="url(#clipPath4)"></path>
    <path id="path5" d="m 0,0 c -19.875,0 -38.066,7.307 -52.066,19.354 1.325,-1.066 2.663,-2.11 3.991,-3.13 8.056,-6.197 20.317,-10.764 30.507,-11.366 0.956,-0.059 1.911,-0.086 2.867,-0.086 5.851,0 11.672,0.986 17.324,1.941 2.097,0.354 4.263,0.723 6.392,1.031 3.426,0.498 6.941,0.665 10.34,0.826 4.745,0.228 9.646,0.461 14.393,1.593 6.318,1.504 14.021,5.858 21.305,11.891 C 40.705,8.405 21.321,0 0,0 m -40.378,27.44 c 2.643,0.91 5.165,1.929 7.604,2.916 6.868,2.779 13.35,5.412 21.408,5.162 7.873,-0.236 15.381,-2.407 21.684,-4.499 3.152,-1.046 6.337,-2.254 9.419,-3.424 6.402,-2.427 13.024,-4.938 19.831,-6.201 1.111,-0.207 2.161,-0.321 3.186,-0.394 -0.158,-0.013 -0.313,-0.039 -0.474,-0.049 -5.812,-0.359 -11.674,0.48 -17.343,1.293 -2.361,0.338 -4.801,0.689 -7.209,0.947 l -2.396,0.261 C 6.99,24.37 -1.634,25.318 -9.926,24.056 -13.5,23.511 -17.055,22.68 -20.492,21.877 c -9.839,-2.3 -19.131,-4.473 -29.12,-0.538 -3.476,1.371 -6.492,3.38 -9.093,5.592 4.061,-1.943 9.788,-2.431 18.327,0.509 m 16.512,-16.519 c 2.798,0 5.642,0.225 8.52,0.68 3.2,0.505 6.322,1.272 9.34,2.011 5.159,1.267 10.032,2.46 15.402,2.527 5.278,0.067 10.624,-0.289 15.8,-0.633 2.795,-0.188 5.687,-0.379 8.535,-0.502 6.631,-0.281 11.925,1.386 16.922,4.501 C 44.691,15.149 38.68,12.047 33.586,10.835 28.904,9.72 24.034,9.486 19.323,9.263 15.907,9.099 12.377,8.928 8.915,8.428 6.778,8.118 4.607,7.748 2.508,7.396 -4.028,6.29 -10.788,5.144 -17.526,5.546 c -9.907,0.586 -22.296,5.204 -30.127,11.225 -0.302,0.232 -0.607,0.468 -0.909,0.704 7.469,-4.291 15.846,-6.554 24.696,-6.554 m 72.664,10.456 c 2.473,0.516 4.774,1.468 7.033,2.808 -6.673,-5.617 -13.143,-8.877 -22.072,-8.49 -2.838,0.122 -5.726,0.315 -8.517,0.5 -5.19,0.343 -10.554,0.704 -15.854,0.636 -5.449,-0.067 -10.587,-1.328 -15.558,-2.547 -3.005,-0.737 -6.112,-1.501 -9.284,-2.002 -15.515,-2.451 -30.076,1.914 -41.399,12.065 -0.451,0.412 -0.903,0.823 -1.337,1.244 2.428,-1.934 5.199,-3.662 8.323,-4.896 4.103,-1.615 8.075,-2.223 12.007,-2.223 5.836,0 11.582,1.342 17.526,2.733 3.422,0.801 6.964,1.626 10.514,2.168 8.2,1.249 16.778,0.304 25.078,-0.607 l 2.394,-0.263 c 2.397,-0.256 4.832,-0.606 7.186,-0.943 5.706,-0.819 11.608,-1.662 17.486,-1.3 2.233,0.138 4.37,0.521 6.474,1.117 M 71.42,44.072 c -2.577,-5.109 -5.682,-9.908 -9.251,-14.319 -1.213,-1.052 -2.396,-2.022 -3.565,-2.89 -3.407,-2.317 -6.705,-3.9 -10.102,-4.849 -2.657,-0.533 -5.525,-0.552 -8.807,0.056 -6.749,1.256 -13.339,3.755 -19.714,6.172 -3.089,1.172 -6.282,2.383 -9.444,3.433 -6.35,2.106 -13.918,4.295 -21.882,4.533 -8.207,0.257 -14.752,-2.405 -21.69,-5.211 -2.428,-0.983 -4.943,-2.001 -7.567,-2.903 -9.532,-3.281 -16.165,-2.759 -21.317,1.854 -1.545,1.622 -2.852,3.251 -3.965,4.773 -2.619,3.803 -4.909,7.847 -6.847,12.087 l -0.589,-0.377 c 1.788,-3.895 3.866,-7.628 6.225,-11.16 l -0.032,-0.022 c 0.226,-0.32 0.485,-0.663 0.731,-0.995 0.277,-0.403 0.567,-0.802 0.852,-1.2 l -0.035,-0.027 c 0.268,-0.372 0.554,-0.744 0.849,-1.114 0.189,-0.257 0.389,-0.505 0.583,-0.759 0.252,-0.331 0.514,-0.657 0.772,-0.985 C -48.594,11.397 -25.69,-0.689 0,-0.689 c 24.852,0 47.08,11.32 61.885,29.045 0.061,0.064 0.128,0.123 0.19,0.186 l -0.016,0.017 c 0.202,0.244 0.419,0.476 0.618,0.722 0.096,0.084 0.188,0.158 0.284,0.24 l -0.051,0.058 c 3.524,4.39 6.594,9.153 9.147,14.224 z" style="fill:#10508c;fill-opacity:1;fill-rule:nonzero;stroke:none" transform="matrix(1.3333333,0,0,-1.3333333,168.42053,275.37707)" clip-path="url(#clipPath6)"></path>
    <path id="path7" d="m 0,0 v -9.021 l 0.044,-0.043 c 0.727,0.99 1.672,1.541 2.948,1.541 2.861,0 3.521,-2.069 3.521,-4.491 v -6.138 h -1.76 v 5.832 c 0,1.672 -0.133,3.168 -2.179,3.168 C 0.153,-9.152 0,-11.396 0,-13.246 v -4.906 H -1.761 V 0 Z" style="fill:#10508c;fill-opacity:1;fill-rule:nonzero;stroke:none" transform="matrix(1.3333333,0,0,-1.3333333,93.0716,294.9604)" clip-path="url(#clipPath8)"></path>
    <path id="path9" d="m 0,0 c 0,-2.113 1.496,-3.83 3.674,-3.83 2.179,0 3.675,1.717 3.675,3.83 0,2.09 -1.496,3.828 -3.675,3.828 C 1.496,3.828 0,2.09 0,0 m -1.761,-0.023 c 0,3.037 2.399,5.48 5.435,5.48 3.037,0 5.435,-2.443 5.435,-5.48 0,-3.036 -2.421,-5.434 -5.435,-5.434 -3.014,0 -5.435,2.398 -5.435,5.434" style="fill:#10508c;fill-opacity:1;fill-rule:nonzero;stroke:none" transform="matrix(1.3333333,0,0,-1.3333333,112.31507,312.26773)" clip-path="url(#clipPath10)"></path>
    <path id="path11" d="m 0,0 h -1.76 v 8.713 h -1.078 v 1.629 h 1.078 v 3.719 H 0 V 10.342 H 1.848 V 8.713 H 0 Z" style="fill:#10508c;fill-opacity:1;fill-rule:nonzero;stroke:none" transform="matrix(1.3333333,0,0,-1.3333333,135.13547,319.1636)" clip-path="url(#clipPath12)"></path>
    <path id="path13" d="M 0,0 C -0.242,1.496 -1.496,2.707 -3.036,2.707 -4.555,2.707 -5.963,1.496 -6.183,0 Z m -6.271,-1.496 c 0.023,-1.914 1.386,-3.455 3.389,-3.455 1.496,0 2.464,0.902 3.147,2.135 l 1.496,-0.858 c -0.99,-1.847 -2.662,-2.904 -4.775,-2.904 -3.08,0 -5.06,2.353 -5.06,5.324 0,3.059 1.781,5.59 5.015,5.59 3.324,0 5.084,-2.752 4.908,-5.832 z" style="fill:#10508c;fill-opacity:1;fill-rule:nonzero;stroke:none" transform="matrix(1.3333333,0,0,-1.3333333,154.23173,310.77293)" clip-path="url(#clipPath14)"></path>
    <path id="path15" d="m 125.397,39.361 h -1.761 v 18.152 h 1.761 z" style="fill:#10508c;fill-opacity:1;fill-rule:nonzero;stroke:none" transform="matrix(1.3333333,0,0,-1.3333333,0,371.64533)" clip-path="url(#clipPath16)"></path>
    <path id="path17" d="m 0,0 h 0.044 c 0.616,0.812 1.144,1.408 2.289,1.408 0.594,0 1.078,-0.199 1.584,-0.484 L 3.081,-0.684 C 2.729,-0.441 2.487,-0.221 2.024,-0.221 0.089,-0.221 0,-2.707 0,-4.049 V -9.221 H -1.76 V 1.121 H 0 Z" style="fill:#10508c;fill-opacity:1;fill-rule:nonzero;stroke:none" transform="matrix(1.3333333,0,0,-1.3333333,178.78253,306.86933)" clip-path="url(#clipPath18)"></path>
    <path id="path19" d="M 0,0 C -0.242,1.496 -1.496,2.707 -3.037,2.707 -4.555,2.707 -5.963,1.496 -6.184,0 Z m -6.271,-1.496 c 0.021,-1.914 1.386,-3.455 3.388,-3.455 1.496,0 2.465,0.902 3.147,2.135 L 1.76,-3.674 c -0.99,-1.847 -2.662,-2.904 -4.775,-2.904 -3.081,0 -5.061,2.353 -5.061,5.324 0,3.059 1.783,5.59 5.017,5.59 3.323,0 5.082,-2.752 4.907,-5.832 z" style="fill:#10508c;fill-opacity:1;fill-rule:nonzero;stroke:none" transform="matrix(1.3333333,0,0,-1.3333333,200.90107,310.77293)" clip-path="url(#clipPath20)"></path>
    <path id="path21" d="M 0,0 H 2.156 L 4.863,-3.52 7.569,0 H 9.77 l -3.785,-4.84 4.29,-5.502 H 8.142 l -3.279,4.203 -3.301,-4.203 h -2.2 l 4.402,5.502 z" style="fill:#10508c;fill-opacity:1;fill-rule:nonzero;stroke:none" transform="matrix(1.3333333,0,0,-1.3333333,210.22653,305.37453)" clip-path="url(#clipPath22)"></path>
    <path id="path23" d="m 0,0 c 0,-0.682 -0.55,-1.254 -1.232,-1.254 -0.682,0 -1.233,0.572 -1.233,1.254 0,0.66 0.551,1.211 1.233,1.211 C -0.55,1.211 0,0.66 0,0" style="fill:#10508c;fill-opacity:1;fill-rule:nonzero;stroke:none" transform="matrix(1.3333333,0,0,-1.3333333,235.1016,317.87187)" clip-path="url(#clipPath24)"></path>
    <path id="path25" d="m 185.984,39.361 h -1.76 v 10.342 h 1.76 z m 0.374,14.237 c 0,-0.703 -0.572,-1.254 -1.254,-1.254 -0.682,0 -1.254,0.551 -1.254,1.254 0,0.681 0.572,1.254 1.254,1.254 0.682,0 1.254,-0.573 1.254,-1.254" style="fill:#10508c;fill-opacity:1;fill-rule:nonzero;stroke:none" transform="matrix(1.3333333,0,0,-1.3333333,0,371.64533)" clip-path="url(#clipPath26)"></path>
    <path id="path27" d="m 0,0 h -1.761 v 8.713 h -1.078 v 1.629 h 1.078 v 3.719 H 0 V 10.342 H 1.848 V 8.713 H 0 Z" style="fill:#10508c;fill-opacity:1;fill-rule:nonzero;stroke:none" transform="matrix(1.3333333,0,0,-1.3333333,260.32813,319.1636)" clip-path="url(#clipPath28)"></path>
  </g>
</svg></svg></g></g></svg>