<?xml version="1.0" encoding="UTF-8" standalone="no"?>
<!-- Created with Inkscape (http://www.inkscape.org/) -->

<svg
   version="1.1"
   id="svg18"
   width="377.952"
   height="377.95334"
   viewBox="0 0 377.952 377.95334"
   sodipodi:docname="Logo rpg per uso digitale web.pdf"
   xmlns:inkscape="http://www.inkscape.org/namespaces/inkscape"
   xmlns:sodipodi="http://sodipodi.sourceforge.net/DTD/sodipodi-0.dtd"
   xmlns="http://www.w3.org/2000/svg"
   xmlns:svg="http://www.w3.org/2000/svg">
  <defs
     id="defs22">
    <clipPath
       clipPathUnits="userSpaceOnUse"
       id="clipPath32">
      <path
         d="M 0,283.465 H 283.464 V 0 H 0 Z"
         id="path30" />
    </clipPath>
  </defs>
  <sodipodi:namedview
     id="namedview20"
     pagecolor="#505050"
     bordercolor="#eeeeee"
     borderopacity="1"
     inkscape:showpageshadow="0"
     inkscape:pageopacity="0"
     inkscape:pagecheckerboard="0"
     inkscape:deskcolor="#505050"
     showgrid="false" />
  <g
     id="g24"
     inkscape:groupmode="layer"
     inkscape:label="Logo rpg per uso digitale web"
     transform="matrix(1.3333333,0,0,-1.3333333,0,377.95333)">
    <g
       id="g26">
      <g
         id="g28"
         clip-path="url(#clipPath32)">
        <g
           id="g34"
           transform="translate(120.8774,202.0825)">
          <path
             d="m 0,0 c 1.024,0.457 0.713,1.091 -0.191,1.497 -3.404,1.528 -7.005,2.225 -10.697,2.468 -0.816,0.051 -1.926,0.162 -2.488,-0.472 -0.172,-0.191 -0.098,-0.543 -0.065,-0.767 1.865,-0.521 3.726,-1.044 5.703,-1.597 -1.886,-3.422 -5.146,-5.696 -6.117,-9.446 C -9.422,-5.157 -4.94,-2.208 0,0"
             style="fill:#10508c;fill-opacity:1;fill-rule:nonzero;stroke:none"
             id="path36" />
        </g>
        <g
           id="g38"
           transform="translate(132.8989,225.061)">
          <path
             d="M 0,0 C -0.138,-0.099 -0.37,-0.028 -0.452,0.144 -0.809,0.896 -0.582,2.278 -0.01,2.745 0.173,2.893 0.507,2.781 0.611,2.536 0.937,1.761 0.582,0.436 0,0 m 31.363,-14.514 c 1.222,3.313 2.318,6.549 3.609,9.706 0.997,2.434 0.549,4.616 -0.467,6.899 C 33.404,4.563 31.197,5.927 29.313,7.588 23.631,12.607 17.935,17.642 11.122,21.126 9.209,22.105 8.293,23.5 7.855,25.52 6.975,29.555 5.819,33.493 4.309,37.3 c -0.008,0.011 -0.164,0.37 -0.15,0.38 -0.957,2.365 -2.053,4.678 -3.31,6.929 -0.719,1.285 -1.701,2.424 -2.557,3.631 -0.288,0.268 -0.611,0.243 -0.575,-0.264 0.179,-0.713 0.319,-1.437 0.543,-2.135 0.901,-2.785 1.662,-5.588 2.231,-8.42 C 0.504,37.42 0.551,37.03 0.566,37.042 1.389,32.8 1.771,28.491 1.523,24.081 1.41,22.121 0.788,20.516 -0.47,19.001 -3.421,15.447 -6.291,11.822 -9.1,8.158 c -1.434,-1.87 -2.67,-3.889 -4.084,-5.971 -1.386,2.754 -2.567,5.404 -4.02,7.894 -1.328,2.274 -2.872,4.436 -4.503,6.509 -0.412,0.525 -1.69,0.901 -2.241,0.641 -0.034,-0.018 -0.071,-0.038 -0.105,-0.063 -0.517,-0.365 -0.906,-1.528 -0.948,-2.089 -0.091,-0.25 0.055,-0.615 0.162,-0.904 0.975,-2.675 1.916,-5.365 2.973,-8.01 0.523,-1.31 0.387,-2.144 -0.862,-3.015 -1.295,-0.901 -2.512,-2.014 -3.482,-3.283 -0.687,-0.903 -0.687,-1.487 -0.629,-1.37 1.556,0.534 2.964,1.149 4.347,1.429 1.858,0.375 3.632,0.015 4.983,-1.479 1.307,-1.44 1.348,-3.004 0.512,-4.728 -0.471,-0.972 -0.744,-2.051 -1.048,-3.098 -0.332,-1.145 -1.027,-1.877 -2.161,-2.244 -8.024,-2.585 -16.169,-4.606 -24.613,-5.212 -0.713,-0.052 -1.466,0.074 -2.129,-0.388 -0.212,-0.148 -0.171,-0.322 0.015,-0.408 0.568,-0.265 0.729,-0.279 1.105,-0.317 10.573,-1.077 20.95,-0.238 31.039,3.272 0.457,0.158 0.992,0.473 1.216,0.871 2.499,4.492 6.06,8.002 10.137,11.033 0.73,0.544 1.515,1.012 2.325,1.549 0.197,-0.328 0.32,-0.71 0.554,-1.016 0.451,-0.582 1.076,-0.075 1.54,0.184 0.67,0.372 1.381,0.689 2.077,1.013 1.372,0.64 2.839,1.113 4.342,1.313 0.9,0.12 1.81,0.12 2.71,0.007 5.401,-0.674 10.835,-1.083 16.257,-1.596 1.546,-0.148 3.122,-0.132 4.637,-0.432 1.866,-0.368 2.95,-1.914 2.408,-3.694 -1.039,-3.409 -2.316,-6.746 -3.545,-10.097 -0.387,-1.046 -0.938,-2.03 -1.395,-3.002 5.028,-3.875 28.405,-6.814 30.528,-3.968 -4.699,0.91 -9.469,1.617 -14.117,2.795 -4.663,1.178 -9.192,2.868 -13.522,5.202"
             style="fill:#10508c;fill-opacity:1;fill-rule:nonzero;stroke:none"
             id="path40" />
        </g>
        <g
           id="g42"
           transform="translate(182.9976,34.4868)">
          <path
             d="m 0,0 c -3.588,0.157 -7.231,0.398 -10.76,0.63 -6.555,0.435 -13.335,0.888 -20.027,0.805 -6.882,-0.086 -13.371,-1.677 -19.65,-3.217 -3.794,-0.931 -7.722,-1.894 -11.73,-2.528 -19.238,-3.039 -37.332,2.195 -51.52,14.519 -0.826,0.742 -1.637,1.494 -2.428,2.257 3.058,-2.429 6.551,-4.597 10.483,-6.147 5.179,-2.041 10.195,-2.811 15.163,-2.811 7.372,0 14.631,1.696 22.138,3.451 4.326,1.013 8.8,2.058 13.282,2.74 10.36,1.576 21.199,0.385 31.676,-0.767 l 3.026,-0.331 c 3.028,-0.326 6.104,-0.767 9.078,-1.192 C -4.064,6.377 3.388,5.31 10.82,5.768 c 2.822,0.175 5.529,0.629 8.185,1.382 3.099,0.647 5.975,1.846 8.806,3.517 C 19.415,3.608 11.265,-0.488 0,0 m -103.867,2.151 c 9.404,-5.371 19.949,-8.18 31.075,-8.18 3.535,0 7.129,0.282 10.764,0.858 4.041,0.637 7.986,1.605 11.799,2.541 6.516,1.598 12.671,3.109 19.456,3.192 6.651,0.082 13.416,-0.368 19.954,-0.802 3.531,-0.233 7.184,-0.474 10.78,-0.633 8.39,-0.352 15.081,1.758 21.401,5.701 C 13.824,-0.681 6.22,-4.607 -0.219,-6.141 c -5.915,-1.41 -12.067,-1.703 -18.017,-1.985 -4.317,-0.206 -8.779,-0.421 -13.144,-1.055 -2.703,-0.391 -5.444,-0.854 -8.096,-1.303 -8.258,-1.398 -16.796,-2.845 -25.306,-2.337 -12.515,0.742 -28.163,6.573 -38.057,14.179 -0.343,0.263 -0.685,0.528 -1.028,0.793 m 61.223,-21.975 c -25.319,0 -48.49,9.366 -66.235,24.815 1.826,-1.476 3.674,-2.915 5.509,-4.324 10.176,-7.826 25.663,-13.595 38.535,-14.357 1.207,-0.073 2.413,-0.105 3.619,-0.105 7.394,0 14.743,1.241 21.886,2.45 2.646,0.448 5.385,0.911 8.075,1.301 4.323,0.628 8.766,0.84 13.061,1.046 5.989,0.285 12.181,0.582 18.179,2.008 C 8.063,-5.066 17.933,0.552 27.234,8.319 9.077,-9.102 -15.554,-19.824 -42.644,-19.824 m -51.004,34.661 c 3.337,1.148 6.524,2.437 9.603,3.684 8.676,3.507 16.873,6.823 27.043,6.519 9.946,-0.298 19.43,-3.04 27.394,-5.684 3.975,-1.319 8.004,-2.846 11.896,-4.322 C -9.625,11.966 -1.26,8.794 7.337,7.199 8.716,6.942 10.032,6.777 11.311,6.683 11.13,6.67 10.949,6.651 10.768,6.639 3.425,6.185 -3.981,7.247 -11.142,8.274 c -2.985,0.427 -6.07,0.868 -9.112,1.195 L -23.276,9.8 c -10.536,1.157 -21.432,2.357 -31.906,0.762 -4.515,-0.688 -9.006,-1.738 -13.347,-2.754 -12.427,-2.904 -24.165,-5.647 -36.784,-0.678 -4.427,1.745 -8.293,4.292 -11.596,7.115 5.136,-2.497 12.398,-3.148 23.261,0.592 m 152.877,66.34 c 0,35.405 -18.159,66.644 -45.648,84.908 C 13.47,165.812 13.343,165.548 13.2,165.292 40.398,147.175 58.358,116.236 58.358,81.177 58.358,57.193 49.95,35.14 35.934,17.796 34.283,16.364 32.678,15.056 31.09,13.89 26.998,11.143 23.026,9.226 18.945,8.045 15.498,7.306 11.776,7.261 7.498,8.054 c -8.526,1.585 -16.852,4.743 -24.903,7.795 -3.9,1.478 -7.934,3.01 -11.93,4.335 -8.021,2.665 -17.581,5.427 -27.641,5.728 -10.363,0.305 -18.632,-3.036 -27.395,-6.582 -3.07,-1.243 -6.245,-2.528 -9.56,-3.67 -12.06,-4.15 -20.447,-3.477 -26.961,2.375 -1.879,1.98 -3.505,3.979 -4.878,5.843 -11.265,16.293 -17.875,36.037 -17.875,57.299 0,36.449 19.411,68.449 48.437,86.212 -0.184,0.111 -0.371,0.215 -0.551,0.333 -0.09,0.059 -0.176,0.126 -0.264,0.187 -29.076,-17.96 -48.494,-50.119 -48.494,-86.732 0,-20.865 6.31,-40.281 17.115,-56.452 l -0.034,-0.022 c 0.303,-0.433 0.623,-0.879 0.956,-1.33 0.337,-0.489 0.677,-0.977 1.023,-1.459 l -0.025,-0.019 c 0.191,-0.266 0.39,-0.533 0.591,-0.799 0.502,-0.674 1.01,-1.338 1.527,-1.989 18.642,-24.189 47.89,-39.805 80.72,-39.805 31.949,0 60.501,14.788 79.195,37.872 0.113,0.098 0.224,0.191 0.338,0.291 l -0.056,0.06 c 14.005,17.452 22.396,39.588 22.396,63.652"
             style="fill:#10508c;fill-opacity:1;fill-rule:nonzero;stroke:none"
             id="path44" />
        </g>
        <g
           id="g46"
           transform="translate(109.1802,132.4692)">
          <path
             d="M 0,0 V 9.544 H -13.036 V 0 h -1.513 v 20.369 h 1.513 V 10.941 H 0 v 9.428 H 1.514 V 0 Z"
             style="fill:#10508c;fill-opacity:1;fill-rule:nonzero;stroke:none"
             id="path48" />
        </g>
        <g
           id="g50"
           transform="translate(134.729,142.6538)">
          <path
             d="m 0,0 c 0,5.034 -3.666,9.166 -8.7,9.166 -5.034,0 -8.643,-4.074 -8.643,-9.108 V 0 c 0,-5.034 3.667,-9.166 8.7,-9.166 5.036,0 8.643,4.073 8.643,9.107 z m -8.7,-10.534 c -6.169,0 -10.214,4.918 -10.214,10.475 V 0 c 0,5.558 4.103,10.533 10.271,10.533 6.17,0 10.214,-4.917 10.214,-10.475 0.03,-0.029 0.03,-0.029 0,-0.058 0,-5.558 -4.102,-10.534 -10.271,-10.534"
             style="fill:#10508c;fill-opacity:1;fill-rule:nonzero;stroke:none"
             id="path52" />
        </g>
        <g
           id="g54"
           transform="translate(146.981,151.4419)">
          <path
             d="M 0,0 V -18.973 H -1.514 V 0 H -8.613 V 1.396 H 7.1 V 0 Z"
             style="fill:#10508c;fill-opacity:1;fill-rule:nonzero;stroke:none"
             id="path56" />
        </g>
        <g
           id="g58"
           transform="translate(158.6499,132.4692)">
          <path
             d="M 0,0 V 20.369 H 14.491 V 18.973 H 1.513 V 10.97 H 13.182 V 9.573 H 1.513 V 1.396 H 14.636 V 0 Z"
             style="fill:#10508c;fill-opacity:1;fill-rule:nonzero;stroke:none"
             id="path60" />
        </g>
        <g
           id="g62"
           transform="translate(178.1177,132.4692)">
          <path
             d="M 0,0 V 20.369 H 1.514 V 1.396 H 13.473 V 0 Z"
             style="fill:#10508c;fill-opacity:1;fill-rule:nonzero;stroke:none"
             id="path64" />
        </g>
        <g
           id="g66"
           transform="translate(101.9556,108.1021)">
          <path
             d="m 0,0 h 7.656 c 1.819,0 3.239,0.443 4.26,1.328 1.02,0.886 1.53,2.062 1.53,3.529 v 0.096 c 0,1.595 -0.522,2.812 -1.567,3.649 -1.045,0.837 -2.5,1.255 -4.365,1.255 H 0 Z m -7.536,-17.633 v 34.31 H 8.135 c 4.339,0 7.672,-1.164 10.001,-3.493 1.962,-1.962 2.942,-4.571 2.942,-7.825 V 5.24 c 0,-2.664 -0.653,-4.888 -1.961,-6.676 -1.308,-1.786 -3.102,-3.101 -5.384,-3.947 l 8.374,-12.25 H 13.279 L 5.934,-6.65 H 5.838 0 v -10.983 z"
             style="fill:#10508c;fill-opacity:1;fill-rule:nonzero;stroke:none"
             id="path68" />
        </g>
        <g
           id="g70"
           transform="translate(129.8286,90.4692)">
          <path
             d="M 0,0 V 34.31 H 25.863 V 27.586 H 7.489 V 20.624 H 23.662 V 13.925 H 7.489 V 6.723 H 26.127 V 0 Z"
             style="fill:#10508c;fill-opacity:1;fill-rule:nonzero;stroke:none"
             id="path72" />
        </g>
        <g
           id="g74"
           transform="translate(160.0474,90.4692)">
          <path
             d="M 0,0 11.963,17.441 0.502,34.31 H 9.33 l 7.202,-11.126 7.249,11.126 h 8.566 L 20.887,17.537 32.85,0 H 24.021 L 16.316,11.771 8.589,0 Z"
             style="fill:#10508c;fill-opacity:1;fill-rule:nonzero;stroke:none"
             id="path76" />
        </g>
        <path
           d="m 99.06,80.016 h 0.679 V 74.955 H 99.06 Z"
           style="fill:#10508c;fill-opacity:1;fill-rule:nonzero;stroke:none"
           id="path78" />
        <g
           id="g80"
           transform="translate(102.1958,80.0161)">
          <path
             d="M 0,0 H 0.68 V -4.409 H 3.248 V -5.061 H 0 Z"
             style="fill:#10508c;fill-opacity:1;fill-rule:nonzero;stroke:none"
             id="path82" />
        </g>
        <g
           id="g84"
           transform="translate(110.7642,74.9556)">
          <path
             d="M 0,0 V 5.222 H 0.006 L 2.66,1.456 2.373,1.512 5.019,5.222 H 5.032 V 0 H 4.36 V 3.682 L 4.402,3.339 2.491,0.637 H 2.478 L 0.539,3.339 0.657,3.654 V 0 Z"
             style="fill:#10508c;fill-opacity:1;fill-rule:nonzero;stroke:none"
             id="path86" />
        </g>
        <g
           id="g88"
           transform="translate(119.0444,76.8735)">
          <path
             d="M 0,0 H 1.883 L 2.106,-0.588 H -0.196 Z M -1.295,-1.918 0.917,3.354 H 0.959 L 3.164,-1.918 H 2.387 L 0.735,2.289 1.218,2.604 -0.63,-1.918 Z"
             style="fill:#10508c;fill-opacity:1;fill-rule:nonzero;stroke:none"
             id="path90" />
        </g>
        <g
           id="g92"
           transform="translate(126.4087,77.0835)">
          <path
             d="M 0,0 1.322,-2.128 H 0.539 l -1.345,2.107 z m -0.834,0.385 c 0.201,0 0.367,0.03 0.501,0.091 0.133,0.061 0.237,0.139 0.312,0.235 0.074,0.096 0.127,0.199 0.16,0.311 0.033,0.112 0.049,0.217 0.049,0.315 0,0.102 -0.017,0.209 -0.052,0.318 C 0.102,1.766 0.045,1.866 -0.032,1.96 -0.109,2.054 -0.209,2.13 -0.333,2.191 -0.457,2.252 -0.607,2.282 -0.785,2.282 H -1.568 V 0.385 Z m -0.07,2.548 c 0.258,0 0.494,-0.034 0.711,-0.101 C 0.023,2.764 0.213,2.663 0.374,2.53 0.535,2.397 0.66,2.234 0.752,2.041 0.843,1.847 0.889,1.622 0.889,1.365 0.889,1.164 0.859,0.969 0.801,0.777 0.742,0.586 0.646,0.412 0.51,0.256 0.375,0.1 0.199,-0.026 -0.018,-0.122 -0.235,-0.218 -0.502,-0.266 -0.82,-0.266 h -0.748 v -1.862 h -0.68 v 5.061 z"
             style="fill:#10508c;fill-opacity:1;fill-rule:nonzero;stroke:none"
             id="path94" />
        </g>
        <g
           id="g96"
           transform="translate(129.7749,80.0161)">
          <path
             d="M 0,0 H 3.29 V -0.65 H 0.679 V -2.19 H 3.01 V -2.842 H 0.679 V -4.409 H 3.388 V -5.061 H 0 Z"
             style="fill:#10508c;fill-opacity:1;fill-rule:nonzero;stroke:none"
             id="path98" />
        </g>
        <path
           d="m 138.553,80.016 h 0.679 v -5.061 h -0.679 z"
           style="fill:#10508c;fill-opacity:1;fill-rule:nonzero;stroke:none"
           id="path100" />
        <g
           id="g102"
           transform="translate(146.0708,74.7944)">
          <path
             d="M 0,0 -3.914,3.969 -3.717,3.92 -3.703,0.161 h -0.68 v 5.215 h 0.035 l 3.871,-3.982 -0.16,0.034 -0.014,3.794 H 0.021 V 0 Z"
             style="fill:#10508c;fill-opacity:1;fill-rule:nonzero;stroke:none"
             id="path104" />
        </g>
        <g
           id="g106"
           transform="translate(155.478,75.3335)">
          <path
             d="m 0,0 c -0.084,-0.056 -0.198,-0.119 -0.343,-0.188 -0.144,-0.071 -0.314,-0.129 -0.508,-0.176 -0.193,-0.046 -0.404,-0.07 -0.632,-0.07 -0.393,0.004 -0.746,0.075 -1.061,0.21 -0.315,0.135 -0.582,0.32 -0.802,0.553 -0.219,0.233 -0.388,0.503 -0.508,0.809 -0.118,0.305 -0.178,0.631 -0.178,0.976 0,0.378 0.062,0.727 0.185,1.046 0.124,0.32 0.298,0.598 0.522,0.833 0.224,0.236 0.489,0.419 0.795,0.55 0.305,0.131 0.64,0.196 1.004,0.196 0.303,0 0.579,-0.041 0.826,-0.123 0.248,-0.081 0.46,-0.178 0.637,-0.29 l -0.273,-0.63 c -0.14,0.093 -0.31,0.182 -0.507,0.266 -0.199,0.084 -0.42,0.126 -0.662,0.126 -0.248,0 -0.48,-0.049 -0.7,-0.147 C -2.425,3.843 -2.618,3.705 -2.786,3.528 -2.954,3.351 -3.086,3.145 -3.181,2.908 -3.276,2.673 -3.325,2.42 -3.325,2.149 c 0,-0.275 0.043,-0.531 0.13,-0.766 0.087,-0.237 0.21,-0.441 0.371,-0.612 0.161,-0.173 0.355,-0.309 0.585,-0.407 0.228,-0.098 0.484,-0.147 0.769,-0.147 0.256,0 0.486,0.04 0.686,0.119 0.201,0.079 0.367,0.168 0.497,0.267 z"
             style="fill:#10508c;fill-opacity:1;fill-rule:nonzero;stroke:none"
             id="path108" />
        </g>
        <g
           id="g110"
           transform="translate(158.4106,76.8735)">
          <path
             d="M 0,0 H 1.883 L 2.107,-0.588 H -0.195 Z M -1.295,-1.918 0.918,3.354 H 0.959 L 3.164,-1.918 H 2.387 L 0.735,2.289 1.219,2.604 -0.629,-1.918 Z"
             style="fill:#10508c;fill-opacity:1;fill-rule:nonzero;stroke:none"
             id="path112" />
        </g>
        <g
           id="g114"
           transform="translate(163.5278,74.9556)">
          <path
             d="M 0,0 V 5.222 H 0.007 L 2.66,1.456 2.373,1.512 5.02,5.222 H 5.033 V 0 H 4.361 V 3.682 L 4.402,3.339 2.492,0.637 H 2.479 L 0.539,3.339 0.658,3.654 V 0 Z"
             style="fill:#10508c;fill-opacity:1;fill-rule:nonzero;stroke:none"
             id="path116" />
        </g>
        <g
           id="g118"
           transform="translate(171.0181,80.0161)">
          <path
             d="M 0,0 H 3.289 V -0.65 H 0.679 V -2.19 H 3.01 V -2.842 H 0.679 V -4.409 H 3.387 V -5.061 H 0 Z"
             style="fill:#10508c;fill-opacity:1;fill-rule:nonzero;stroke:none"
             id="path120" />
        </g>
        <g
           id="g122"
           transform="translate(178.8296,77.0835)">
          <path
             d="M 0,0 1.323,-2.128 H 0.539 l -1.345,2.107 z m -0.833,0.385 c 0.201,0 0.367,0.03 0.5,0.091 0.133,0.061 0.237,0.139 0.312,0.235 C 0.054,0.807 0.106,0.91 0.14,1.022 0.173,1.134 0.188,1.239 0.188,1.337 0.188,1.439 0.171,1.546 0.136,1.655 0.102,1.766 0.046,1.866 -0.032,1.96 -0.108,2.054 -0.209,2.13 -0.333,2.191 -0.456,2.252 -0.606,2.282 -0.784,2.282 H -1.567 V 0.385 Z m -0.07,2.548 c 0.257,0 0.494,-0.034 0.711,-0.101 C 0.024,2.764 0.214,2.663 0.374,2.53 0.535,2.397 0.661,2.234 0.753,2.041 0.843,1.847 0.889,1.622 0.889,1.365 0.889,1.164 0.86,0.969 0.802,0.777 0.743,0.586 0.646,0.412 0.511,0.256 0.376,0.1 0.199,-0.026 -0.018,-0.122 -0.235,-0.218 -0.502,-0.266 -0.819,-0.266 h -0.748 v -1.862 h -0.68 v 5.061 z"
             style="fill:#10508c;fill-opacity:1;fill-rule:nonzero;stroke:none"
             id="path124" />
        </g>
        <g
           id="g126"
           transform="translate(182.9868,76.8735)">
          <path
             d="M 0,0 H 1.883 L 2.107,-0.588 H -0.195 Z M -1.295,-1.918 0.918,3.354 H 0.959 L 3.164,-1.918 H 2.387 L 0.735,2.289 1.219,2.604 -0.629,-1.918 Z"
             style="fill:#10508c;fill-opacity:1;fill-rule:nonzero;stroke:none"
             id="path128" />
        </g>
        <g
           id="g130"
           transform="translate(130.0015,184.5259)">
          <path
             d="m 0,0 2.12,-6.46 6.8,-0.02 -5.49,-4.012 2.083,-6.475 -5.513,3.982 -5.513,-3.982 2.084,6.475 -5.491,4.012 6.8,0.02 z"
             style="fill:#10508c;fill-opacity:1;fill-rule:nonzero;stroke:none"
             id="path132" />
        </g>
        <g
           id="g134"
           transform="translate(107.563,184.5259)">
          <path
             d="m 0,0 2.12,-6.46 6.8,-0.02 -5.491,-4.012 2.084,-6.475 -5.513,3.982 -5.513,-3.982 2.083,6.475 -5.491,4.012 6.801,0.02 z"
             style="fill:#10508c;fill-opacity:1;fill-rule:nonzero;stroke:none"
             id="path136" />
        </g>
        <g
           id="g138"
           transform="translate(175.146,184.5259)">
          <path
             d="m 0,0 2.12,-6.46 6.8,-0.02 -5.49,-4.012 2.084,-6.475 -5.514,3.982 -5.513,-3.982 2.084,6.475 -5.491,4.012 6.8,0.02 z"
             style="fill:#10508c;fill-opacity:1;fill-rule:nonzero;stroke:none"
             id="path140" />
        </g>
        <g
           id="g142"
           transform="translate(152.7075,184.5259)">
          <path
             d="m 0,0 2.12,-6.46 6.8,-0.02 -5.491,-4.012 2.084,-6.475 -5.513,3.982 -5.513,-3.982 2.083,6.475 -5.491,4.012 6.801,0.02 z"
             style="fill:#10508c;fill-opacity:1;fill-rule:nonzero;stroke:none"
             id="path144" />
        </g>
      </g>
    </g>
  </g>
</svg>
