<svg xmlns="http://www.w3.org/2000/svg" version="1.1" viewBox="0 0 4586 1531"><defs><clipPath id="a" clipPathUnits="userSpaceOnUse"><path d="M0 1815h4245V0H0Z"/></clipPath></defs><g fill="#10508c" fill-opacity="1" fill-rule="nonzero" clip-path="url(#a)" transform="matrix(1.33333 0 0-1.33333-386 2010)"><path d="M690 691c12 5 8 12-2 17-40 18-80 26-122 28-10 0-22 2-29-5-2-2 0-6 0-9l65-18c-22-40-60-65-70-108 50 35 102 70 158 95"/><path d="M828 954c-2-1-4 0-5 2-4 9-2 25 5 31 2 2 6 0 7-2 4-11 0-26-7-31m513-225a670 670 0 00-155 60c14 37 27 74 42 110 11 28 6 53-6 80s-37 43-59 62c-65 57-130 115-208 155a67 67 0 00-37 50 860 860 0 01-40 134h13A510 510 0 00 1400 847h4v24a514 514 0 01-527 514c-12 27-25 53-39 79-8 14-20 27-30 41-3 3-6 3-6-3l6-24c10-32 20-64 26-96a514 514 0 01-456-528h4a510 510 0 00 453 523 560 560 0 00 10-148c0-22-8-40-22-58-34-40-67-82-99-124-16-21-30-44-46-68-16 32-30 62-46 90-16 26-33 50-52 75-5 6-20 10-25 7h-2c-6-5-10-18-10-25-2-2 0-7 1-10l34-91c6-15 5-25-10-35-14-10-28-23-40-37-7-10-7-17-6-16 17 6 33 13 50 16 20 5 40 0 56-17 15-16 16-34 6-54a180 180 0 01-12-35 35 35 0 00-25-26c-91-30-184-52-280-60-10 0-18 2-25-4-3-1-2-3 0-4 6-3 8-3 13-4 120-12 239-3 354 37 5 2 12 6 14 10a400 400 0 00 116 126c8 7 17 12 26 18l7-11c5-7 12-1 17 2l24 11a152 152 0 00 80 15l186-18c18-2 36-1 53-5 22-4 34-22 28-42-12-40-27-77-40-115l-17-35c58-44 325-78 350-45-54 10-109 18-162 32M890 363a507 507 0 00-306 103 383 383 0 01 212-73c38 0 75 7 110 13l41 6 66 6c30 1 62 2 92 10 40 10 90 37 135 75a507 507 0 00-350-140M633 538c17 5 33 12 48 18 44 18 85 35 137 33A450 450 0 00 956 560l60-21c40-16 83-32 126-40a180 180 0 01 20-2h-2a450 450 0 00-110 8l-46 6-15 1c-54 6-108 12-161 4-23-3-46-9-67-14-63-14-122-28-186-3-22 9-41 21-58 35 26-12 63-15 117 4m104-105c18 0 36 0 54 4 20 3 40 8 60 13a466 466 0 00 198 12l55-3a180 180 0 01 107 28 324 324 0 00-108-54c-30-7-60-9-90-10-23-1-45-2-67-5l-41-7c-42-8-86-15-128-13a384 384 0 00-197 76c47-27 99-41 157-41m463 66c15 3 30 10 44 18a193 193 0 00-140-54l-54 3c-33 2-67 5-101 4a410 410 0 01-100-16c-18-5-38-10-58-13a313 313 0 00-264 77l-8 8a208 208 0 01 129-45c37 0 74 8 112 17l66 14c53 8 107 2 160-4l15-2c16-1 31-4 46-6a550 550 0 01 112-7c15 0 28 3 42 7m144 145a510 510 0 00-60-92l-22-18a218 218 0 00-64-30c-17-4-35-4-56 0-43 8-85 23-126 39l-60 22c-40 13-89 27-140 29-51 1-93-16-137-34l-48-18c-63-22-104-20-137 10A510 510 0 00 427 660l-4-2c12-25 25-49 40-71l4-7 6-8 5-7 4-5 5-6a513 513 0 01 797-11h1l4 5 2 2c22 28 41 59 58 90zm310 331h20V854h167v122h20V714h-20v122h-167V713h-20Zm405-249a108 108 0 01 103 72c5 14 8 29 8 45a125 125 0 01-31 85 110 110 0 01-184-37c-5-14-8-30-8-45v-1a125 125 0 01 32-84 110 110 0 01 80-35m0-18a128 128 0 00-123 84 140 140 0 00 27 147 127 127 0 00 96 40 130 130 0 00 122-83 142 142 0 00 0-104 130 130 0 00-27-43 127 127 0 00-96-40m272 249h-91v18h201v-18h-91V714h-19Zm170 17h186v-18h-166V856h150v-20h-150V730h170v-17h-190Zm251 0h20V731h153v-17h-173Zm281-127h59c13 0 24 3 31 10 8 7 12 16 12 27 1 13-3 23-12 30-8 6-20 10-34 10h-56Zm-58-135v262h120c33 0 59-8 77-26a80 80 0 00 21-61c0-21-5-38-15-52a87 87 0 00-41-30l64-94h-68l-55 86h-45v-84zm271 0v262h198v-51h-140v-53h122V820h-123v-55h143v-51Zm231 0 91 133-87 130h66l55-86 56 85h65l-86-128 90-134h-67l-60 90-58-90ZM1784 563h6v-80h-6zm69 0h6v-74h47v-6h-53Zm182 0h6l32-47 32 47h5v-80h-5v70l-32-46-33 46v-70h-5Zm192-53-20 46-23-46Zm-24 53h6l37-80h-6l-10 21h-48l-10-23h-5zm132-42 10 1 7 4c2 1 3 3 4 6 2 2 2 4 2 7 0 6-2 10-6 13-4 3-10 5-17 5h-27v-36Zm-33 41h34c5 0 9 0 13-2l10-5a20 20 0 00 5-15c0-4 0-7-2-10a20 20 0 00-4-6l-8-5-10-2 27-34h-7l-26 33h-26v-33h-6zm121 1h57v-5h-51v-32h46v-5h-46v-32h51v-6h-57Zm189 0h6v-80h-6zm69 0h6l54-70v70h5v-80h-4l-55 71v-70h-6Zm239-81a40 40 0 00-37 25 42 42 0 00 8 45 39 39 0 00 30 13 47 47 0 00 17-4l7-4 5-5-4-5-5 5a35 35 0 01-35 4c-4-1-8-4-10-7a36 36 0 01-10-26 38 38 0 01 10-25 33 33 0 01 38-7c5 2 9 5 13 9l4-4-7-6a40 40 0 00-24-8m140 28-20 46-23-46Zm-24 53h6l37-80h-6l-10 21h-48l-10-23h-5zm99 0h6l32-47 32 47h5v-80h-5v70l-32-46-33 46v-70h-5Zm137 0h57v-5h-51v-32h46v-5h-46v-32h51v-6h-57Zm148-42 10 1 7 4c2 1 3 3 4 6 2 2 2 4 2 7 0 6-2 10-6 13-4 3-10 5-17 5h-27v-36Zm-33 41h34c5 0 9 0 13-2l10-5a20 20 0 00 5-15c0-4 0-7-2-10a20 20 0 00-4-6l-8-5-10-2 27-34h-7l-26 33h-26v-33h-6zm176-52-20 46L3520 510Zm-24 53h6l37-80h-6l-10 21h-48l-10-23h-5zm-1032 842 25-77h80l-64-47 24-77-65 47-65-46 24 77-65 47h80zm-266 0 25-77h80l-64-47 24-77-65 47-65-46 24 77-65 47h80zm801 0 25-77h80l-64-47 24-77-65 47-65-46 24 77-65 47h80zm-266 0 25-77h80l-64-47 24-77-65 47-65-46 24 77-65 47h80"/></g></svg>
